<?xml version="1.0" standalone="no"?>
<!DOCTYPE svg PUBLIC "-//W3C//DTD SVG 20010904//EN"
 "http://www.w3.org/TR/2001/REC-SVG-20010904/DTD/svg10.dtd">
<svg version="1.0" xmlns="http://www.w3.org/2000/svg"
 width="850.000000pt" height="850.000000pt" viewBox="0 0 850.000000 850.000000"
 preserveAspectRatio="xMidYMid meet">
<metadata>
Created by potrace 1.11, written by Peter Selinger 2001-2013
</metadata>
<g transform="translate(0.000000,850.000000) scale(0.100000,-0.100000)"
fill="#000000" stroke="none">
<path d="M0 4250 l0 -4250 4250 0 4250 0 0 4250 0 4250 -4250 0 -4250 0 0
-4250z m2550 2895 l0 -185 325 0 325 0 0 -2295 0 -2295 -325 0 -325 0 0 -170
0 -170 325 0 325 0 0 -450 0 -450 -730 0 -730 0 0 3100 0 3100 405 0 405 0 0
-185z m4200 181 c0 -3 -495 -696 -1100 -1541 -606 -844 -1103 -1541 -1106
-1549 -3 -8 465 -670 1093 -1547 605 -844 1103 -1540 1107 -1546 6 -10 -125
-13 -641 -13 l-648 0 -1105 1542 c-608 848 -1105 1549 -1104 1558 0 8 497 709
1105 1557 l1104 1542 648 1 c356 0 647 -2 647 -4z"/>
</g>
</svg>
